<?xml version="1.0" encoding="UTF-8"?>
<svg id="Layer_2" data-name="Layer 2" xmlns="http://www.w3.org/2000/svg" viewBox="0 0 304.8 203">
  <defs>
    <style>
      .cls-1 {
        fill: #fff;
      }
    </style>
  </defs>
  <g id="Layer_1-2" data-name="Layer 1">
    <g>
      <g>
        <path class="cls-1" d="M27.1,201.7c-.3-1.3-.6-2.8-.7-4.4-3.9,3.9-8.1,5.7-13.3,5.7-8.2,0-13.1-4.9-13.1-12.3,0-7,3.7-11.3,11.1-13.1,9.7-2.3,14.9-1.7,14.9-4.9v-1c0-2.5-1.9-3.7-5.4-3.7-3.9,0-6.2,1.7-6.8,4.7H1.2c1.3-9.6,7.8-14.1,19.7-14.1,7.3,0,12.4,1.7,15.3,5.5,2.6,3.4,2.8,7.7,2.8,13.5v15.9c0,3.7.6,5.9,2,6.7v1.6h-13.9v-.1ZM17.5,184.4c-3.1.9-4.5,2.1-4.5,4.7,0,2.9,2,5,5,5,4.6,0,7.9-2.9,7.9-7.4v-4.8c-2.2,1.5-5.3,1.6-8.4,2.5Z"/>
        <path class="cls-1" d="M62.9,203c-12.5,0-20.7-8.8-20.7-21.9,0-14.3,8.3-23,21.4-23,11.5,0,18.9,6.2,19.7,16.4h-13.8c-.8-3.9-2.8-5.9-6.1-5.9-4.7,0-7.2,4.1-7.2,12s2.3,11.5,7.1,11.5c3.5,0,5.7-2,6.5-6.1h13.5c-1.3,10.7-8.9,17-20.4,17Z"/>
        <path class="cls-1" d="M83.5,159.6h5.6v-11.9h13.6v11.9h7v8.3h-7v18.2c0,5.1.8,6.9,5.1,6.9.5,0,1.1,0,1.7-.1v8.8c-2.8.6-5.5.9-8.2.9-10.9,0-12.4-5.3-12.4-18.4v-16.3h-5.6v-8.3h.2Z"/>
        <path class="cls-1" d="M113.7,144.7h13.6v11.1h-13.6v-11.1ZM113.7,159.6h13.6v42h-13.6v-42Z"/>
        <path class="cls-1" d="M129.3,159.6h14.4l8,29.3,8.1-29.3h14.4l-15.5,42h-14l-15.4-42Z"/>
        <path class="cls-1" d="M205.2,176.2c0-7.3-1.6-10.8-8.3-10.8-7.5,0-12.2,4.6-12.2,11.8v24.5h-6.9v-56.9h6.9v21.4c2.5-4.5,7-6.9,12.9-6.9,6.2,0,10.5,1.9,12.7,5.6,1.7,2.7,1.8,5.9,1.8,10v26.9h-7v-25.6h.1Z"/>
        <path class="cls-1" d="M252.4,188.3c-1.5,9.2-8.3,14.7-18,14.7-11.3,0-18.5-8.2-18.5-21.6,0-14.3,7.2-22.5,18.5-22.5s18.6,7.5,18.6,21c0,1,0,2.1-.1,3.1h-29.7c.2,8.8,4.6,13.7,11.9,13.7,5.7,0,9.4-3,10.5-8.4h6.8ZM245.7,177.2c-.1-7.8-4.1-12.1-11.1-12.1s-10.9,4.2-11.5,12.1h22.6Z"/>
        <path class="cls-1" d="M268.2,202.9c-8.5,0-13.4-4.7-13.4-12.4s4.6-11.8,14.1-13c5.7-.7,9.6-.9,11.3-1.6,1.9-.8,2-1.7,2-4.5,0-4.2-3.1-6.3-9.3-6.3s-9.7,2.7-9.7,7.7h-6.5v-.3c0-8.3,6.1-13.5,16.4-13.5,11,0,16,4,16,12.8v20.7c0,2.9.2,4.2,2.7,4.2.5,0,1-.1,1.8-.2v5.4c-1.5.4-2.8.6-4,.6-4.6,0-6.9-2.1-6.9-6.1v-.2c-4.2,4.4-9,6.7-14.5,6.7ZM269.1,183.5c-5,.8-7.1,2.8-7.1,7s2.6,6.4,7.4,6.4c7.6,0,12.7-4.3,12.7-10.1v-6.2c-3.6,2-8.1,2.1-13,2.9Z"/>
        <path class="cls-1" d="M297.8,144.7h7v56.9h-7v-56.9Z"/>
      </g>
      <g>
        <path class="cls-1" d="M241,44.6c-12.5,0-22.7,10.2-22.7,22.8s10.2,22.8,22.7,22.8,22.7-10.2,22.7-22.8-10.1-22.8-22.7-22.8Z"/>
        <path class="cls-1" d="M304.8,65.6C304.8,29.4,275.4,0,239.2,0h0c-36.2,0-65.6,29.4-65.6,65.6h0c0,36.2,29.4,65.6,65.6,65.6h24.6v-29.9c-6.5,4.4-14.3,7-22.8,7-22.2,0-40.3-18-40.6-40.3h0s-.7-20.6,17.8-34.4c6.5-4.4,14.3-7,22.8-7,22.3,0,40.3,18,40.6,40.3h0v64.3h23.2v-65.6Z"/>
      </g>
    </g>
  </g>
</svg>