<?xml version="1.0" encoding="UTF-8"?>
<svg id="Layer_2" data-name="Layer 2" xmlns="http://www.w3.org/2000/svg" viewBox="0 0 257.29 162.26">
  <defs>
    <style>
      .cls-1 {
        fill: #fff;
      }
    </style>
  </defs>
  <g id="Layer_1-2" data-name="Layer 1">
    <path class="cls-1" d="M206.54,35.6h-.09c-9.63-1.41-19.33-2.26-29.06-2.54C166.78,6.22,136.43-6.94,109.59,3.67c-26.84,10.61-39.99,40.96-29.39,67.8,2.39,6.04,5.88,11.59,10.3,16.35L128.51,1.72l15.21,33.9c-21.67,3.78-35.29,11.33-35.34,20.1,0,5,3.66,11.88,20.62,22l17,10.12s-14.13-18.6-11.44-28.56c1.32-4.89,6.2-9.44,13.88-13.22l18.73,41.74c12.52-13.52,17.01-32.63,11.8-50.31,9.15-1.28,18.38-1.91,27.62-1.88"/>
    <path class="cls-1" d="M10.62,112.19h.06l3.09,8.82h-6.24l3.09-8.82ZM8.32,107.9L0,129.27h4.44l1.86-4.9h8.7l1.83,4.9h4.75l-8.39-21.37h-4.87Z"/>
    <path class="cls-1" d="M30.48,126.45c2.73,0,3.61-2.88,3.61-5.11s-1-5-3.67-5-3.4,2.91-3.4,5,.77,5.11,3.46,5.11M34.25,127.45h-.07c-1.18,1.44-2.97,2.24-4.83,2.14-4.84,0-6.61-4-6.61-8.29s1.77-8.2,6.61-8.2c1.84-.09,3.6.74,4.71,2.2h.06v-9h4.11v23h-4l.02-1.85Z"/>
    <polygon class="cls-1" points="40.52 113.5 44.93 113.5 48.85 124.98 48.91 124.98 52.7 113.5 56.8 113.5 50.99 129.27 46.37 129.27 40.52 113.5"/>
    <path class="cls-1" d="M64.61,126.63c1.13.02,2.2-.5,2.88-1.4.63-.96.93-2.1.85-3.25h-1.77c-1.84,0-4.56.31-4.56,2.73,0,1.34,1.13,1.92,2.6,1.92M59.8,114.33c1.73-.76,3.59-1.16,5.48-1.19,4.81,0,6.8,2,6.8,6.64v2c0,1.59,0,2.78.06,3.95s.09,2.29.18,3.52h-3.61c-.11-.78-.17-1.57-.18-2.36h-.06c-1.03,1.71-2.88,2.74-4.87,2.72-2.79,0-5.51-1.68-5.51-4.68-.12-1.91.95-3.7,2.69-4.5,1.68-.68,3.49-1,5.3-.92h2.26c0-2.53-1.13-3.39-3.55-3.39-1.76.03-3.47.63-4.86,1.71l-.13-3.5Z"/>
    <path class="cls-1" d="M75.93,113.5h3.89v2.15h.06c1.17-1.68,3.13-2.63,5.18-2.51,3.73,0,5.35,2.63,5.35,6.18v9.95h-4.1v-8.42c0-1.93,0-4.53-2.66-4.53-3,0-3.61,3.21-3.61,5.23v7.72h-4.11v-15.77Z"/>
    <path class="cls-1" d="M104.67,116.9c-.87-.41-1.82-.61-2.78-.58-2.54,0-4.16,2-4.16,5s1.37,5.14,4.25,5.14c1.09-.05,2.15-.29,3.15-.73l.19,3.39c-1.33.39-2.72.56-4.11.52-5.17,0-7.77-3.52-7.77-8.32s2.69-8.17,7.62-8.17c1.35-.03,2.7.14,4,.52l-.39,3.23Z"/>
    <path class="cls-1" d="M117.74,119.84c-.12-2-1-3.7-3.33-3.7s-3.46,1.59-3.65,3.7h6.98ZM120.5,128.38c-1.67.88-3.54,1.31-5.42,1.25-5.2,0-8.23-3-8.23-8.17,0-4.56,2.42-8.32,7.31-8.32,5.85,0,7.5,4,7.5,9.52h-10.9c.19,2.54,2,4,4.5,4,1.86-.08,3.67-.65,5.24-1.65v3.37Z"/>
    <path class="cls-1" d="M131.42,126.45c2.73,0,3.61-2.88,3.61-5.11s-1-5-3.67-5-3.4,2.91-3.4,5,.77,5.11,3.46,5.11M135.19,127.45h-.06c-1.18,1.44-2.98,2.24-4.84,2.14-4.83,0-6.61-4-6.61-8.29s1.78-8.2,6.61-8.2c1.84-.09,3.6.74,4.71,2.2h.07v-9h4.1v23h-4l.02-1.85Z"/>
    <polygon class="cls-1" points="150.85 107.9 157.7 107.9 162.78 124.09 162.84 124.09 167.92 107.9 174.78 107.9 174.78 129.27 170.68 129.27 170.68 111.64 170.62 111.64 164.86 129.27 160.76 129.27 155.01 111.64 154.95 111.7 154.95 129.27 150.85 129.27 150.85 107.9"/>
    <path class="cls-1" d="M189.07,119.84c-.12-2-1-3.7-3.33-3.7s-3.46,1.59-3.64,3.7h6.97ZM191.83,128.38c-1.67.88-3.54,1.31-5.42,1.25-5.2,0-8.23-3-8.23-8.17,0-4.56,2.42-8.32,7.31-8.32,5.85,0,7.5,4,7.5,9.52h-10.89c.18,2.54,2,4,4.5,4,1.85-.06,3.66-.61,5.23-1.59v3.31Z"/>
    <path class="cls-1" d="M202.75,126.45c2.73,0,3.62-2.88,3.62-5.11s-1.05-5-3.68-5-3.39,2.91-3.39,5,.76,5.11,3.45,5.11M206.52,127.45h-.06c-1.18,1.44-2.98,2.24-4.84,2.14-4.83,0-6.61-4-6.61-8.29s1.78-8.2,6.61-8.2c1.84-.08,3.6.74,4.72,2.2h.06v-9h4.1v23h-4l.02-1.85Z"/>
    <path class="cls-1" d="M214.63,113.5h4.1v15.77h-4.1v-15.77ZM214.63,106.71h4.1v3.92h-4.1v-3.92Z"/>
    <path class="cls-1" d="M233.09,116.9c-.87-.41-1.83-.61-2.79-.58-2.54,0-4.16,2-4.16,5s1.38,5.14,4.25,5.14c1.09-.05,2.15-.29,3.15-.73l.19,3.39c-1.33.39-2.71.56-4.1.52-5.18,0-7.77-3.52-7.77-8.32s2.69-8.17,7.61-8.17c1.35-.03,2.7.14,4,.52l-.38,3.23Z"/>
    <path class="cls-1" d="M241.78,126.63c1.13.02,2.2-.5,2.88-1.4.63-.96.93-2.1.85-3.25h-1.78c-1.83,0-4.55.31-4.55,2.73,0,1.34,1.13,1.92,2.6,1.92M237,114.33c1.73-.76,3.59-1.16,5.48-1.19,4.8,0,6.8,2,6.8,6.64v2c0,1.59,0,2.78.06,3.95s.09,2.29.18,3.52h-3.61c-.1-.78-.17-1.57-.19-2.36h-.05c-1.03,1.71-2.88,2.74-4.87,2.72-2.79,0-5.51-1.68-5.51-4.68-.12-1.91.95-3.7,2.69-4.5,1.68-.69,3.49-1,5.3-.92h2.26c0-2.53-1.13-3.39-3.55-3.39-1.76.03-3.47.63-4.86,1.71l-.13-3.5Z"/>
    <rect class="cls-1" x="253.19" y="106.31" width="4.1" height="22.95"/>
    <path class="cls-1" d="M82.44,144.42c-1.37-.6-2.85-.91-4.34-.92-1.47,0-3.37.64-3.37,3,0,3.7,9.36,2.14,9.36,9.3,0,4.68-3.7,6.46-8,6.46-1.86,0-3.7-.29-5.48-.83l.41-3.85c1.48.83,3.14,1.28,4.83,1.31,1.62,0,3.79-.82,3.79-2.75,0-4.07-9.36-2.39-9.36-9.46,0-4.77,3.7-6.52,7.47-6.52,1.73-.02,3.46.24,5.11.77l-.42,3.49Z"/>
    <path class="cls-1" d="M94.65,159.01c3.16,0,4-2.82,4-5.45,0-2.42-1.28-4.68-4-4.68s-3.94,2.32-3.94,4.68c0,2.6.82,5.45,3.94,5.45M94.65,145.69c4.69,0,8.27,3.16,8.27,8.36,0,4.53-3,8.14-8.27,8.14-4.29.25-7.97-3.02-8.23-7.31-.02-.28-.02-.56,0-.83,0-5.2,3.58-8.36,8.23-8.36"/>
    <rect class="cls-1" x="106.04" y="138.91" width="4.1" height="22.95"/>
    <path class="cls-1" d="M128.75,161.86h-3.89v-2.14h-.06c-1.25,1.59-3.15,2.51-5.17,2.51-3.74,0-5.36-2.63-5.36-6.18v-9.95h4.11v8.42c0,1.93,0,4.53,2.66,4.53,3,0,3.61-3.22,3.61-5.24v-7.71h4.1v15.76Z"/>
    <path class="cls-1" d="M134.14,149.1h-3v-3h3v-3.15l4.1-1.32v4.47h3.64v3h-3.64v7.35c0,1.34.36,2.6,1.93,2.6.65.03,1.29-.12,1.86-.43l.12,3.24c-.98.27-1.99.39-3,.37-3.22,0-5-2-5-5.11v-8.02Z"/>
    <path class="cls-1" d="M144.6,161.86h4.1v-15.76h-4.1v15.76ZM144.6,143.23h4.1v-3.92h-4.1v3.92Z"/>
    <path class="cls-1" d="M160.06,159.01c3.15,0,4-2.82,4-5.45,0-2.42-1.29-4.68-4-4.68s-3.95,2.32-3.95,4.68c0,2.6.83,5.45,3.95,5.45M160.06,145.69c4.68,0,8.26,3.16,8.26,8.36,0,4.53-3,8.14-8.26,8.14s-8.23-3.61-8.23-8.14c0-5.2,3.58-8.36,8.23-8.36"/>
    <path class="cls-1" d="M171.35,146.1h3.89v2.14h.06c1.17-1.68,3.13-2.63,5.17-2.51,3.74,0,5.36,2.63,5.36,6.19v9.94h-4.1v-8.41c0-1.93,0-4.53-2.66-4.53-3,0-3.62,3.21-3.62,5.23v7.71h-4.1v-15.76Z"/>
    <path class="cls-1" d="M199.23,149.41c-1.17-.45-2.41-.69-3.67-.68-1.1,0-2.42.4-2.42,1.75,0,2.51,7.13.91,7.13,6.61,0,3.67-3.27,5.14-6.61,5.14-1.57-.03-3.13-.25-4.65-.67l.25-3.37c1.24.64,2.61.98,4,1,1,0,2.7-.4,2.7-1.93,0-3.09-7.13-1-7.13-6.67,0-3.4,3-4.9,6.18-4.9,1.51.02,3.01.21,4.47.58l-.25,3.14Z"/>
  </g>
</svg>