<?xml version="1.0" encoding="UTF-8"?>
<svg id="Confluence-Logo-White-Green-HEX" xmlns="http://www.w3.org/2000/svg" viewBox="0 0 460.56 75">
  <defs>
    <style>
      .cls-1 {
        fill: #55941c;
      }

      .cls-1, .cls-2 {
        stroke-width: 0px;
      }

      .cls-2 {
        fill: #fff;
      }
    </style>
  </defs>
  <g>
    <path class="cls-2" d="m85.18,41.25c0,18.66,15.7,28.25,29.48,28.25,6.26,0,10.05-.64,13.29-2.09v-7.27c-3.11,1.37-7,2.21-12.33,2.21-10.9,0-21.89-6.89-21.89-20.93s11.25-21.02,21.89-21.02c4.8,0,9.39,1.32,12.33,2.78v-8.07c-3.28-1.27-7.67-2.2-13.29-2.2-13.6,0-29.48,9.42-29.48,28.34Z"/>
    <path class="cls-2" d="m153.22,28.08c-11.77,0-21.02,8.46-21.02,20.76s9.24,20.67,21.02,20.67,20.93-8.46,20.93-20.67-9.16-20.76-20.93-20.76Zm0,41.42c11.77,0,20.93-8.46,20.93-20.67m-20.93,13.86c-6.97,0-12.99-5.49-12.99-13.69s6.02-13.78,12.99-13.78,12.91,5.49,12.91,13.78-6.02,13.69-12.91,13.69Z"/>
    <path class="cls-2" d="m197.94,28.08h-4.54c-8.63,0-15,5.49-15,14.3v26.16h7.94v-25.38c0-4.1,2.53-8.29,9.16-8.29h.35c6.63,0,9.16,4.19,9.16,8.29v25.38h7.94v-26.16c0-8.81-6.36-14.3-15-14.3Z"/>
    <path class="cls-2" d="m365.93,28.08h-4.54c-8.63,0-15,5.49-15,14.3v26.16h7.94v-25.38c0-4.1,2.53-8.29,9.16-8.29h.35c6.63,0,9.16,4.19,9.16,8.29v25.38h7.94v-26.16c0-8.81-6.36-14.3-15-14.3Z"/>
    <path class="cls-2" d="m293.24,54.42c0,4.1-2.53,8.29-9.16,8.29h-.35c-6.63,0-9.16-4.19-9.16-8.29v-26.33h-7.94v27.12c0,8.81,6.36,14.3,15,14.3h4.54c8.63,0,15-5.49,15-14.3v-27.12h-7.94v26.33Z"/>
    <path class="cls-2" d="m385.18,48.84c0,12.92,10.46,20.67,21.1,20.67,3.59,0,6.85-.57,9.62-1.74v-7.1c-2.98,1.31-5.67,1.89-8.92,1.89-7.06,0-13.78-5.17-13.78-13.54s6.54-13.63,13.6-13.63c3.26,0,6.07.61,9.1,2.27v-7.96c-2.72-1.04-5.86-1.62-9.62-1.62-10.64,0-21.1,7.75-21.1,20.76Z"/>
    <path class="cls-2" d="m256.45,58.01V13.08c-3.4-3.22-9.16-6.63-16.66-6.63-10.29,0-16.66,5.93-16.66,17.09v4.53h-5.95v5.95h5.95v34.51h7.94v-34.51h9.92v-5.95h-9.92v-4.1c0-7.15,3.05-10.9,9.24-10.9,2.79,0,6.1,1.14,8.2,2.88v46.02h0c0,4.68,1.81,8.41,4.79,10.89l7.51-4.33c-2.73-2.48-4.36-6.08-4.36-10.53Z"/>
    <path class="cls-2" d="m325.04,28.08c-9.16,0-19.62,7.32-19.62,20.76,0,12.3,9.94,20.67,21.19,20.67,3.05,0,5.51-.36,7.59-.94v-6.97c-1.88.58-4.03.93-6.54.93-9.24,0-13.78-6.89-14.04-11.77h20.58l7.93-4.58h0v-3.1c0-7.32-6.19-15-17.09-15Zm8.98,16.22h-19.88c1.05-5.49,6.37-9.42,11.34-9.42,5.23,0,8.63,4.45,8.63,8.37,0,.35,0,.7-.09,1.05Z"/>
    <path class="cls-2" d="m439.77,28.08c-9.16,0-19.62,7.32-19.62,20.76,0,12.3,9.94,20.67,21.19,20.67,3.05,0,5.51-.36,7.59-.94v-6.97c-1.88.58-4.03.93-6.54.93-9.24,0-13.78-6.89-14.04-11.77h20.58l7.93-4.58h0v-3.1c0-7.32-6.19-15-17.09-15Zm8.98,16.22h-19.88c1.05-5.49,6.37-9.42,11.34-9.42,5.23,0,8.63,4.45,8.63,8.37,0,.35,0,.7-.09,1.05Z"/>
  </g>
  <path class="cls-2" d="m454.33,24.54v3.54h-.87v-3.54h-1.11v-.7h3.06v.7h-1.08Zm5.35,1.11l-.09-.03-1.07,2.45h-.63l-1.08-2.48-.09.02v2.47h-.87v-4.24h1.1l1.2,2.94h.09l1.22-2.94h1.1v4.24h-.88v-2.42Z"/>
  <g>
    <polygon class="cls-2" points="48.35 39.18 75 23.79 75 0 0 0 0 42.05 26.66 26.66 48.35 39.18"/>
    <polygon class="cls-1" points="26.65 35.82 0 51.21 0 75 75 75 75 32.95 48.34 48.34 26.65 35.82"/>
  </g>
</svg>