<?xml version="1.0" encoding="UTF-8"?>
<svg id="Layer_2" data-name="Layer 2" xmlns="http://www.w3.org/2000/svg" xmlns:xlink="http://www.w3.org/1999/xlink" viewBox="0 0 200.262 55.659">
  <defs>
    <clipPath id="clippath">
      <rect width="200.262" height="55.659" style="fill: none;"/>
    </clipPath>
    <clipPath id="clippath-1">
      <rect y="0" width="200.262" height="55.659" style="fill: none;"/>
    </clipPath>
    <clipPath id="clippath-2">
      <path d="M3.074,0h11.219C15.99,0,17.367,1.377,17.367,3.074v11.221c0,1.696-1.377,3.073-3.073,3.073H3.074c-1.697,0-3.074-1.377-3.074-3.074V3.074C0,1.377,1.377,0,3.074,0Z" style="fill: none;"/>
    </clipPath>
    <linearGradient id="linear-gradient" x1="-661.479" y1="-616.977" x2="-660.479" y2="-616.977" gradientTransform="translate(43493.081 46621.797) rotate(90) scale(70.48 -70.48)" gradientUnits="userSpaceOnUse">
      <stop offset="0" stop-color="#f15e37"/>
      <stop offset=".5" stop-color="#b03339"/>
      <stop offset="1" stop-color="#b03339"/>
    </linearGradient>
    <clipPath id="clippath-3">
      <path d="M22.191,0h11.22C35.108,0,36.485,1.377,36.485,3.074v11.221c0,1.696-1.377,3.073-3.073,3.073h-11.22c-1.697,0-3.074-1.377-3.074-3.074V3.073C19.118,1.377,20.495,0,22.191,0Z" style="fill: none;"/>
    </clipPath>
    <linearGradient id="linear-gradient-2" x1="-661.479" y1="-616.977" x2="-660.479" y2="-616.977" gradientTransform="translate(43512.198 46608.279) rotate(90) scale(70.48 -70.48)" xlink:href="#linear-gradient"/>
    <clipPath id="clippath-4">
      <rect x="38.236" y="0" width="17.368" height="17.368" rx="3.074" ry="3.074" style="fill: none;"/>
    </clipPath>
    <linearGradient id="linear-gradient-3" x1="-661.479" y1="-616.977" x2="-660.479" y2="-616.977" gradientTransform="translate(43531.326 46594.751) rotate(90) scale(70.48 -70.48)" xlink:href="#linear-gradient"/>
    <clipPath id="clippath-5">
      <path d="M22.191,19.146h11.221c1.696,0,3.073,1.377,3.073,3.073v11.221c0,1.696-1.377,3.073-3.073,3.073h-11.22c-1.697,0-3.074-1.377-3.074-3.074v-11.22c0-1.696,1.377-3.073,3.073-3.073Z" style="fill: none;"/>
    </clipPath>
    <linearGradient id="linear-gradient-4" x1="-661.479" y1="-616.977" x2="-660.479" y2="-616.977" gradientTransform="translate(43512.2 46613.885) rotate(90) scale(70.48 -70.48)" xlink:href="#linear-gradient"/>
    <clipPath id="clippath-6">
      <path d="M41.31,19.146h11.221c1.696,0,3.073,1.377,3.073,3.073v11.22c0,1.697-1.377,3.074-3.074,3.074h-11.22c-1.697,0-3.074-1.377-3.074-3.074v-11.219c0-1.697,1.377-3.074,3.074-3.074Z" style="fill: none;"/>
    </clipPath>
    <linearGradient id="linear-gradient-5" x1="-661.479" y1="-616.977" x2="-660.479" y2="-616.977" gradientTransform="translate(43531.311 46600.373) rotate(90) scale(70.48 -70.48)" xlink:href="#linear-gradient"/>
    <clipPath id="clippath-7">
      <rect x="38.236" y="38.292" width="17.368" height="17.367" rx="3.074" ry="3.074" style="fill: none;"/>
    </clipPath>
    <linearGradient id="linear-gradient-6" x1="-661.479" y1="-616.977" x2="-660.479" y2="-616.977" gradientTransform="translate(43531.314 46605.978) rotate(90) scale(70.48 -70.48)" xlink:href="#linear-gradient"/>
  </defs>
  <g id="Layer_1-2" data-name="Layer 1">
    <g id="FA-Solutions-Logo-White-Grey">
      <g style="clip-path: url(#clippath);">
        <g style="clip-path: url(#clippath-1);">
          <path d="M88.174,0h-24.561C62.051,0,60.784,1.266,60.784,2.828v30.72c0,1.638,1.328,2.965,2.966,2.965h7.618v-12.21h7.69c.617,0,1.163-.398,1.351-.985l2.115-6.596h-11.156v-7.58h12.476c.75,0,1.416-.479,1.655-1.19L88.174,0Z" style="fill: #fff;"/>
          <path d="M90.534,4.565l-10.226,31.948h7.516c.72,0,1.356-.465,1.573-1.151l5.428-17.105-4.291-13.692Z" style="fill: #e0e1e5;"/>
          <path d="M92.179,0h8.652C102.099,0,103.225.811,103.627,2.013l10.806,32.329c.357,1.068-.438,2.171-1.564,2.171h-8.485L92.179,0Z" style="fill: #fff;"/>
          <path d="M63.819,55.13c-1.233-.336-2.233-.784-3.001-1.345l1.368-3.121c.817.513,1.689.905,2.617,1.177.929.272,1.865.408,2.809.408.961,0,1.693-.132,2.198-.396.504-.264.756-.637.756-1.117,0-.432-.228-.784-.685-1.056-.456-.272-1.324-.544-2.605-.816-1.584-.337-2.825-.736-3.721-1.201-.897-.464-1.525-1.008-1.885-1.633-.36-.624-.54-1.392-.54-2.305,0-1.04.292-1.972.876-2.797.584-.824,1.408-1.472,2.473-1.945,1.065-.472,2.285-.708,3.662-.708,1.216,0,2.396.172,3.541.516,1.144.344,2.037.789,2.677,1.333l-1.344,3.121c-1.537-1.056-3.154-1.585-4.85-1.585-.817,0-1.473.157-1.969.469-.497.312-.744.724-.744,1.236,0,.305.087.553.264.744.176.192.504.381.984.565s1.192.372,2.137.564c1.537.336,2.745.74,3.626,1.212.88.473,1.504,1.021,1.872,1.645.368.624.553,1.369.553,2.233,0,1.665-.641,2.965-1.921,3.902-1.281.936-3.082,1.405-5.402,1.405-1.265,0-2.514-.169-3.746-.505" style="fill: #fff;"/>
          <path d="M80.519,54.566c-1.272-.712-2.253-1.721-2.941-3.026-.689-1.304-1.033-2.837-1.033-4.598s.344-3.292,1.033-4.597c.688-1.305,1.669-2.309,2.941-3.014,1.273-.704,2.773-1.056,4.502-1.056s3.229.352,4.502,1.056c1.272.705,2.248,1.709,2.929,3.014.68,1.305,1.02,2.837,1.02,4.597s-.344,3.294-1.032,4.598c-.688,1.305-1.669,2.314-2.941,3.026-1.273.712-2.765,1.068-4.478,1.068-1.729,0-3.229-.356-4.502-1.068M88.021,50.892c.72-.904,1.081-2.221,1.081-3.95s-.365-3.041-1.093-3.937c-.728-.896-1.725-1.345-2.989-1.345-1.281,0-2.281.444-3.001,1.333-.721.888-1.081,2.205-1.081,3.949s.36,3.066,1.081,3.962c.72.897,1.72,1.345,3.001,1.345s2.281-.452,3.001-1.357" style="fill: #fff;"/>
          <polygon points="95.76 38.491 100.178 38.491 100.178 51.84 107.382 51.84 107.382 55.418 95.76 55.418 95.76 38.491" style="fill: #fff;"/>
          <path d="M111.385,53.761c-1.273-1.249-1.909-3.074-1.909-5.475v-9.795h4.322v9.963c0,1.217.272,2.153.816,2.81.544.656,1.329.984,2.353.984s1.809-.328,2.353-.984c.544-.657.817-1.593.817-2.81v-9.963h4.346v9.795c0,2.386-.645,4.207-1.933,5.463-1.289,1.257-3.15,1.885-5.583,1.885-2.449,0-4.31-.624-5.582-1.873" style="fill: #fff;"/>
          <polygon points="131.489 42.068 126.423 42.068 126.423 38.491 141.021 38.491 141.021 42.068 135.955 42.068 135.955 55.418 131.489 55.418 131.489 42.068" style="fill: #fff;"/>
          <rect x="143.081" y="38.491" width="4.418" height="16.927" style="fill: #fff;"/>
          <path d="M153.777,54.566c-1.272-.712-2.253-1.721-2.941-3.026-.689-1.304-1.033-2.837-1.033-4.598s.344-3.292,1.033-4.597c.688-1.305,1.669-2.309,2.941-3.014,1.273-.704,2.773-1.056,4.502-1.056s3.229.352,4.502,1.056c1.272.705,2.248,1.709,2.929,3.014.68,1.305,1.02,2.837,1.02,4.597s-.344,3.294-1.032,4.598c-.688,1.305-1.669,2.314-2.941,3.026-1.273.712-2.765,1.068-4.478,1.068-1.729,0-3.229-.356-4.502-1.068M161.28,50.892c.72-.904,1.081-2.221,1.081-3.95s-.365-3.041-1.093-3.937c-.728-.896-1.725-1.345-2.989-1.345-1.281,0-2.281.444-3.001,1.333-.721.888-1.081,2.205-1.081,3.949s.36,3.066,1.081,3.962c.72.897,1.72,1.345,3.001,1.345s2.281-.452,3.001-1.357" style="fill: #fff;"/>
          <polygon points="184.077 38.491 184.077 55.418 180.811 55.418 173.08 45.742 173.08 55.418 168.975 55.418 168.975 38.491 172.192 38.491 179.947 48.167 179.947 38.491 184.077 38.491" style="fill: #fff;"/>
          <path d="M189.194,55.13c-1.233-.336-2.233-.784-3.001-1.345l1.368-3.121c.817.513,1.689.905,2.617,1.177.929.272,1.865.408,2.809.408.961,0,1.693-.132,2.198-.396.504-.264.756-.637.756-1.117,0-.432-.228-.784-.685-1.056-.456-.272-1.324-.544-2.605-.816-1.584-.337-2.825-.736-3.721-1.201-.897-.464-1.525-1.008-1.885-1.633-.36-.624-.54-1.392-.54-2.305,0-1.04.292-1.972.876-2.797.584-.824,1.408-1.472,2.473-1.945,1.065-.472,2.285-.708,3.662-.708,1.216,0,2.396.172,3.541.516,1.144.344,2.037.789,2.677,1.333l-1.344,3.121c-1.537-1.056-3.154-1.585-4.85-1.585-.817,0-1.473.157-1.969.469-.497.312-.744.724-.744,1.236,0,.305.087.553.264.744.176.192.504.381.984.565s1.192.372,2.137.564c1.537.336,2.745.74,3.626,1.212.88.473,1.504,1.021,1.872,1.645.368.624.553,1.369.553,2.233,0,1.665-.641,2.965-1.921,3.902-1.281.936-3.082,1.405-5.402,1.405-1.265,0-2.514-.169-3.746-.505" style="fill: #fff;"/>
        </g>
        <g style="clip-path: url(#clippath-2);">
          <rect x="-3.597" y="-3.597" width="24.561" height="24.561" transform="translate(-3.597 8.684) rotate(-45)" style="fill: url(#linear-gradient);"/>
        </g>
        <g style="clip-path: url(#clippath-3);">
          <rect x="15.521" y="-3.597" width="24.561" height="24.561" transform="translate(2.002 22.202) rotate(-45)" style="fill: url(#linear-gradient-2);"/>
        </g>
        <g style="clip-path: url(#clippath-4);">
          <rect x="34.639" y="-3.597" width="24.562" height="24.562" transform="translate(7.602 35.721) rotate(-45)" style="fill: url(#linear-gradient-3);"/>
        </g>
        <g style="clip-path: url(#clippath-5);">
          <rect x="15.521" y="15.549" width="24.561" height="24.561" transform="translate(-11.536 27.81) rotate(-45)" style="fill: url(#linear-gradient-4);"/>
        </g>
        <g style="clip-path: url(#clippath-6);">
          <rect x="34.639" y="15.549" width="24.561" height="24.561" transform="translate(-5.936 41.329) rotate(-45)" style="fill: url(#linear-gradient-5);"/>
        </g>
        <g style="clip-path: url(#clippath-7);">
          <rect x="34.639" y="34.695" width="24.561" height="24.561" transform="translate(-19.474 46.936) rotate(-45)" style="fill: url(#linear-gradient-6);"/>
        </g>
      </g>
    </g>
  </g>
</svg>