<?xml version="1.0" encoding="UTF-8"?>
<svg id="Layer_2" data-name="Layer 2" xmlns="http://www.w3.org/2000/svg" viewBox="0 0 982.64 194.8">
  <defs>
    <style>
      .cls-1 {
        fill: #fff;
      }
    </style>
  </defs>
  <g id="Pangea-Logo-White-CMYK">
    <g>
      <path class="cls-1" d="M646.17,80.98c-59.04-3.82-99.04-3.82-141.83-1.96,7.3-34.86,35.25-58.11,70.55-58.11,21.64,0,40.88,9.84,52.88,24.04.93,1.08,2.4,1.32,3.57.59l13.85-8.57c1.42-.88,1.76-2.89.64-4.16C629.38,13.51,606.81,0,574.89,0c-48.18,0-87.78,31.53-95.27,80.34l-14.15.88c-.88.05-1.62.78-1.62,1.71,0,.98.78,1.71,1.71,1.71l13.51-.59v.05c-.49,4.26-.88,8.62-.88,13.17,0,58.36,43.13,97.52,96.69,97.52,29.86,0,54.93-12.24,72.36-30.79.98-1.03,1.52-2.4,1.52-3.82v-76.47c0-1.47-1.17-2.64-2.59-2.74ZM625.36,114.28v37c0,1.52-.59,2.99-1.71,4.01-9.79,8.91-27.52,18.65-48.76,18.65-41.17,0-72.46-32.12-72.46-76.67,0-4.8.44-9.4,1.13-13.85l.05-.15s121.76-3.24,121.76,19.88v11.13Z"/>
      <path class="cls-1" d="M940.64,5.88h5.4c.32,0,.58.26.58.58v19.39c0,.32.26.58.58.58h1.8c.32,0,.58-.26.58-.58V6.46c0-.32.26-.58.58-.58h5.4c.32,0,.58-.26.58-.58v-1.58c0-.32-.26-.58-.58-.58h-14.93c-.32,0-.58.26-.58.58v1.58c0,.32.26.58.58.58Z"/>
      <path class="cls-1" d="M982.06,3.13h-3.58c-.24,0-.45.15-.54.37l-6.09,15.22c-.2.49-.89.49-1.09,0l-6.09-15.22c-.09-.22-.3-.37-.54-.37h-3.57c-.32,0-.58.26-.58.58v22.14c0,.32.26.58.58.58h1.8c.32,0,.58-.26.58-.58v-15.74c0-.64.88-.82,1.13-.22l6.67,16.19c.09.22.3.36.54.36h.06c.24,0,.45-.14.54-.36l6.67-16.19c.24-.59,1.13-.42,1.13.22v15.74c0,.32.26.58.58.58h1.8c.32,0,.58-.26.58-.58V3.71c0-.32-.26-.58-.58-.58Z"/>
      <path class="cls-1" d="M21.54,178.05c-6.71,2.27-13.29,4.59-19.73,6.96-1.1.4-1.81,1.45-1.81,2.62v.74c0,1.53,1.24,2.78,2.78,2.78h17.85c1.53,0,2.78-1.24,2.78-2.78v-9c0-.95-.95-1.62-1.86-1.32Z"/>
      <path class="cls-1" d="M134.46,59.78c0-30.7-21.15-56.64-58.9-56.64H5.55C2.47,3.13.02,5.63.02,8.67v169.35c0,1.96,1.91,3.28,3.72,2.55l17.82-6.41c1.13-.39,1.81-1.42,1.81-2.55v-49.59c0-3.08,2.5-5.58,5.58-5.58h46.61c37.21,0,58.9-25.9,58.9-56.64ZM72.72,95.57H28.95c-3.08,0-5.58-2.45-5.58-5.53V29.52c0-3.04,2.5-5.53,5.58-5.53h43.77c22.28,0,37.5,14.64,37.5,35.79s-15.23,35.79-37.5,35.79Z"/>
      <path class="cls-1" d="M260.65,121.24c-.52-1.29-1.93-2-3.28-1.66-5.73,1.46-11.4,2.97-16.99,4.51-1.58.44-2.43,2.15-1.84,3.68l22.98,59.87c.84,2.11,2.88,3.5,5.16,3.5h18.06c1.97,0,3.31-1.99,2.57-3.81l-26.65-66.09Z"/>
      <path class="cls-1" d="M452.03,3.13h-17.85c-1.53,0-2.78,1.24-2.78,2.78v75.23c0,1.64,1.4,2.91,3.03,2.75,5.9-.57,11.85-1.11,17.82-1.6,1.44-.12,2.55-1.32,2.55-2.76V5.9c0-1.53-1.24-2.78-2.78-2.78Z"/>
      <path class="cls-1" d="M451.82,89.15c-5.99.42-11.95.87-17.87,1.37-1.44.12-2.54,1.33-2.54,2.78v41.34c0,5.37-6.87,7.61-10.04,3.27l-29.31-40.54c-.6-.82-1.6-1.25-2.6-1.13-6.31.78-12.57,1.63-18.78,2.49-2.07.29-3.08,2.69-1.86,4.39l61.77,85.73c1.04,1.44,2.72,2.3,4.5,2.3h16.94c1.53,0,2.78-1.24,2.78-2.78v-96.44c0-1.61-1.38-2.89-2.98-2.78Z"/>
      <path class="cls-1" d="M319.29,107.63c-6.01,1.13-11.98,2.29-17.88,3.51-1.29.27-2.21,1.41-2.21,2.73v74.5c0,1.53,1.24,2.78,2.78,2.78h17.85c1.53,0,2.78-1.24,2.78-2.78v-78.01c0-1.74-1.6-3.06-3.31-2.74Z"/>
      <path class="cls-1" d="M383.45,85.86L324.83,5.41c-1.04-1.43-2.71-2.28-4.49-2.28h-18.36c-1.53,0-2.78,1.24-2.78,2.78v95.75c-47.75,11.15-111.15,30.3-111.15,30.3h0c-.61.19-1.1.71-1.2,1.38-.14.94.5,1.82,1.44,1.96.26.04.52.02.75-.05h0s83.87-25.33,131.33-34.68h0c1.29-.26,2.22-1.39,2.22-2.71v-41.21c0-5.38,6.89-7.62,10.05-3.25l27.86,38.54c.61.85,1.64,1.28,2.67,1.11,6.09-.98,12.21-1.92,18.4-2.81,2.07-.3,3.09-2.68,1.86-4.37Z"/>
      <path class="cls-1" d="M203.75,37.27l29.06,75.43c.53,1.38,2.04,2.1,3.45,1.63l16.49-4.55c1.54-.48,2.35-2.17,1.74-3.67L214.37,6.6c-.85-2.1-2.88-3.47-5.15-3.47h-21.54c-2.27,0-4.31,1.38-5.15,3.48l-72.62,180.73c-.73,1.82.61,3.81,2.58,3.81h18.24c2.12-.06,4.17-1.47,4.93-3.45l13.23-34.48,1.66-4.33,1.14-2.98,41.7-108.65c1.84-4.71,8.51-4.71,10.35.01Z"/>
      <path class="cls-1" d="M909.56,6.61c-.88-2.11-2.89-3.48-5.14-3.48h-21.54c-2.3,0-4.31,1.37-5.19,3.48l-41.52,103.35c-38.97-9.79-84.99-18.36-140.66-24.53v-53.36c0-3.04,2.5-5.53,5.58-5.53h75.1c1.52,0,2.79-1.27,2.79-2.79V5.92c0-1.57-1.27-2.79-2.79-2.79h-101.29c-1.52,0-2.79,1.22-2.79,2.79v77.11l-11.65-1.03c-.88-.05-1.67.59-1.81,1.47-.15.93.54,1.81,1.47,1.96l11.99,1.86v101.1c0,1.52,1.27,2.74,2.79,2.74h116.03c2.06,0,3.38-2.11,2.5-3.97l-7.25-17.82c-.49-.98-1.47-1.62-2.5-1.62h-82.59c-3.08,0-5.58-2.45-5.58-5.53v-71.77c47.54,6.85,94.93,15.76,136.79,29.18l-27.22,67.71c-.74,1.86.64,3.82,2.59,3.82h18.07c2.25,0,4.31-1.37,5.14-3.48l23.26-60.61c53.9,16.69,96.06,44.31,102.71,60.9.44.93,1.08,1.71,1.91,2.25v.05c.88.54,1.96.88,3.04.88h18.07c1.96,0,3.28-1.96,2.55-3.82L909.56,6.61ZM858.45,115.84l30.11-78.58c1.86-4.7,8.52-4.7,10.38,0l41.32,106.48c-23.6-9.45-50.28-19.04-81.81-27.91Z"/>
    </g>
  </g>
</svg>