<?xml version="1.0" encoding="UTF-8"?>
<svg id="Layer_2" data-name="Layer 2" xmlns="http://www.w3.org/2000/svg" viewBox="0 0 332.05 51.18">
  <defs>
    <style>
      .cls-1 {
        fill: #fff;
      }
    </style>
  </defs>
  <g id="Layer_1-2" data-name="Layer 1">
    <path class="cls-1" d="M89.63,22.28h-2.99l2.29-11.03h3.4c3.34,0,7.04,0,7.04,4.28,0,5.4-5.33,6.75-9.73,6.75M91.62,4.8h-9.67l-8.57,40.94h8.21l3.57-17.01h3.11c4.46,0,4.22,3.05,5.16,7.39l1.99,9.62h8.62l-3.93-16.48c-.53-2.23-1.93-3.64-4.16-3.75v-.12c6.69-.12,11.96-3.87,11.96-10.91,0-9.8-8.74-9.68-16.3-9.68"/>
    <polygon class="cls-1" points="124.23 11.25 140.25 11.25 141.47 4.8 117.36 4.8 108.75 45.74 133.15 45.74 134.55 39.29 118.37 39.29 120.77 27.79 135.14 27.79 136.43 21.34 122.12 21.34 124.23 11.25"/>
    <g>
      <path class="cls-1" d="M145.05,16.47c0,10.91,13.96,9.74,13.96,17.12,0,4.4-3.88,6.4-7.8,6.4-3.52,0-6.86-1.35-10.03-2.82l-2.11,6.98c3.7,1.35,7.74,2.28,11.67,2.28,8.97,0,16.83-3.63,16.83-13.66,0-11.38-13.96-10.97-13.96-17.54,0-3.52,3.93-4.69,6.86-4.69s6.1.88,8.51,2.11l1.93-6.75c-3.35-1.35-7.04-1.82-10.61-1.82-7.86,0-15.25,3.75-15.25,12.37"/>
      <path class="cls-1" d="M191.27,39.99c-5.92,0-8.62-4.75-8.62-10.09,0-8.27,4.92-19.35,14.49-19.35,5.92,0,8.74,4.57,8.74,10.03,0,8.15-5.22,19.41-14.6,19.41M197.37,4.1c-6.69,0-12.37,2.52-16.84,7.62-4.16,4.87-6.45,11.21-6.45,17.72,0,9.73,6.04,17,16.13,17,6.86,0,13.08-2.11,17.36-6.86,4.4-4.93,6.86-11.44,6.86-18.13,0-10.9-5.98-17.36-17.07-17.36"/>
      <path class="cls-1" d="M232.09,22.28h-2.99l2.29-11.03h3.4c3.35,0,7.04,0,7.04,4.28,0,5.4-5.34,6.75-9.73,6.75M234.09,4.8h-9.68l-8.56,40.94h8.21l3.58-17.01h3.11c4.46,0,4.22,3.05,5.16,7.39l1.99,9.62h8.62l-3.93-16.48c-.53-2.23-1.94-3.64-4.16-3.75v-.12c6.69-.12,11.97-3.87,11.97-10.91,0-9.8-8.74-9.68-16.31-9.68"/>
      <path class="cls-1" d="M266.81,21.34h-3.23l2.17-10.09h2.88c3.11,0,6.86.18,6.86,4.11,0,4.81-4.51,5.98-8.68,5.98M262.65,39.29h-2.81l2.46-11.85h2.64c4.4,0,8.39.64,8.39,4.92,0,6.34-5.63,6.92-10.68,6.92M274.97,24.45v-.12c4.75-.76,8.74-4.75,8.74-9.73,0-7.45-5.98-9.79-12.38-9.79h-12.14l-8.57,40.94h11.67c6.1,0,19.24-.94,19.24-12.67,0-4.4-1.99-7.92-6.57-8.62"/>
    </g>
    <path class="cls-1" d="M299.66,29.9l9.85-17.83h.24l2.58,17.83h-12.67ZM306.52,4.8l-24.81,40.93h9.09l5.22-9.38h17.41l1.41,9.38h8.21l-7.45-40.93h-9.09Z"/>
    <g>
      <path class="cls-1" d="M326.63,10.09v-1.82h.54c.28,0,.5.04.64.1.28.11.48.4.48.77,0,.3-.1.55-.25.7-.19.17-.44.24-.91.24h-.51ZM328.12,11.05c-.09-.13-.21-.29-.45-.48.87.03,1.4-.63,1.4-1.44,0-.5-.23-.86-.47-1.07-.25-.24-.62-.38-1.24-.38h-1.46v5.21h.73v-2.31c.21.01.33.08.47.24.38.42.51.63.91,1.3.2.35.28.48.43.77h.89c-.1-.16-.53-.85-.76-1.2-.18-.28-.33-.51-.44-.64"/>
      <path class="cls-1" d="M327.35,14.33c-2.16,0-3.86-1.74-3.86-4.01s1.7-4.01,3.86-4.01,3.86,1.74,3.86,4.01-1.72,4.01-3.86,4.01M327.35,5.62c-2.56,0-4.69,2.02-4.69,4.69s2.13,4.69,4.69,4.69,4.7-2.02,4.7-4.69-2.15-4.69-4.7-4.69"/>
      <path class="cls-1" d="M6.45,20.11c11.1-7.19,19.59-7.21,19.59-7.21,8.08,0,11.49,4.37,11.49,7.93s-3.89,5.66-3.89,5.66c1.47-4.48-2.2-6.46-3.23-6.96-1.6-.49-2.35-.63-4.37-.32-11.71,1.31-19.99,11.84-22.68,15.71L0,51.14l55.08.04,3.74-18.33c-10.89,6.92-19.17,6.94-19.17,6.94-8.08,0-11.48-4.37-11.48-7.93s3.88-5.66,3.88-5.66c-1.47,4.47,2.2,6.46,3.23,6.95,1.6.49,2.35.63,4.37.32,11.32-1.27,18.81-9.52,22.02-14.6l3.85-18.88L10.63.05l-4.17,20.07Z"/>
    </g>
  </g>
</svg>