<?xml version="1.0" encoding="UTF-8"?>
<svg id="Layer_2" data-name="Layer 2" xmlns="http://www.w3.org/2000/svg" xmlns:xlink="http://www.w3.org/1999/xlink" viewBox="0 0 326.17 76.07">
  <defs>
    <style>
      .cls-1 {
        fill: none;
      }

      .cls-2 {
        clip-path: url(#clippath-1);
      }

      .cls-3 {
        fill: #fff;
      }

      .cls-4 {
        clip-path: url(#clippath);
      }
    </style>
    <clipPath id="clippath">
      <rect class="cls-1" width="326.17" height="76.07"/>
    </clipPath>
    <clipPath id="clippath-1">
      <rect class="cls-1" width="326.17" height="76.07"/>
    </clipPath>
  </defs>
  <g id="Layer_2-2" data-name="Layer 2">
    <g id="Layer_1-2" data-name="Layer 1-2">
      <g id="LIQUIBAND-TA-RGB">
        <g class="cls-4">
          <g>
            <polygon class="cls-3" points="75.89 10.06 83.22 10.06 79.13 36.97 92.94 36.97 91.91 43.63 70.76 43.63 75.89 10.06"/>
            <polygon class="cls-3" points="100.42 10.06 107.75 10.06 102.62 43.63 95.29 43.63 100.42 10.06"/>
            <g class="cls-2">
              <g>
                <path class="cls-3" d="M139.56,37.73l3.87,4.77-5.09,4.09-3.78-4.73c-2.79,1.62-6.03,2.52-9.45,2.52-9.04,0-15.66-6.3-15.66-15.61,0-10.8,8.6-19.48,19.21-19.48,8.91,0,15.57,6.25,15.57,15.53,0,4.99-1.76,9.45-4.68,12.91M130.24,36.51l-5.62-7.06,5.04-4.1,5.31,6.61c1.21-1.93,1.89-4.27,1.89-6.61,0-5.9-3.74-9.36-8.64-9.36-6.43,0-11.38,6.12-11.38,12.47,0,5.81,3.78,9.23,8.73,9.23,1.71,0,3.28-.4,4.68-1.17"/>
                <path class="cls-3" d="M175.79,31.17c-1.26,8.23-6.75,13.23-14.8,13.23-7.51,0-13.1-4.41-13.1-12.19,0-.72.04-1.66.27-2.83l2.97-19.3h7.29l-2.97,19.62c-.09.63-.18,1.3-.18,1.93,0,4.19,2.84,6.08,6.08,6.08,3.91,0,6.57-2.65,7.24-7.29l3.11-20.34h7.29l-3.19,21.1h0Z"/>
                <polygon class="cls-3" points="184.84 10.06 192.17 10.06 187.04 43.63 179.71 43.63 184.84 10.06"/>
                <path class="cls-3" d="M221.06,18.2c0,3.87-2.74,6.75-5.94,8.24,2.57.99,4.82,3.42,4.82,7.07,0,5.13-4.1,10.12-14.26,10.12h-12.37l5.13-33.57h11.11c7.78,0,11.52,3.46,11.52,8.14M212.79,32.87c0-2.34-1.89-3.69-5.08-3.69h-5.26l-1.31,8.23h4.82c4.82,0,6.84-1.98,6.84-4.54M214.06,19.6c0-2.02-1.76-3.33-5.18-3.33h-4.45l-1.26,7.74h5.09c3.91,0,5.81-2.07,5.81-4.41"/>
                <path class="cls-3" d="M243.34,35.48h-12.69l-4.23,8.14h-7.92l18.13-33.57h8.6l7.06,33.57h-7.42l-1.53-8.14h0ZM242.22,29.45l-2.21-11.79h-.04l-6.17,11.79s8.42,0,8.42,0Z"/>
                <polygon class="cls-3" points="283.61 43.63 276.41 43.63 265.48 21.58 265.39 21.58 262.15 43.63 255.13 43.63 260.26 10.06 267.55 10.06 278.34 32.69 278.39 32.69 281.76 10.06 288.74 10.06 283.61 43.63"/>
                <path class="cls-3" d="M295,10.06h8.68c10.44,0,16.88,6.52,16.88,15.35,0,9.72-7.29,18.22-21.24,18.22h-9.45s5.13-33.57,5.13-33.57ZM313.18,25.85c0-5.35-3.78-9.09-9.72-9.09h-2.2l-3.06,20.2h2.2c7.83,0,12.78-4.86,12.78-11.12"/>
                <path class="cls-3" d="M62.15,5.22l.06-.03c-3.29,1.39-6.9,2.16-10.7,2.16C44.28,7.35,37.7,4.56,32.8,0c-4.91,4.56-11.48,7.35-18.71,7.35-3.78,0-7.38-.76-10.66-2.14C1.21,11.28,0,17.83,0,24.67c0,22.73,13.4,42.33,32.73,51.33.05.02.1.05.15.07,19.33-9,32.73-28.6,32.73-51.33,0-6.86-1.22-13.43-3.46-19.52M32.8,63.31c-10.07,0-18.23-8.16-18.23-18.23,0-2.4.46-4.69,1.31-6.78,3.94-11.78,16.93-30.5,16.93-30.5,0,0,17.75,25.42,18.15,35.66.05.54.07,1.08.07,1.63,0,10.07-8.16,18.23-18.23,18.23"/>
                <path class="cls-3" d="M45.24,42.81c-1.03,7.97-5.36,14.32-10.55,16.3,7.24-.48,12.97-7.68,12.97-16.51,0-4.23-1.32-8.08-3.48-11,1.14,3.25,1.58,7.13,1.06,11.21"/>
                <polygon class="cls-3" points="74.68 53.82 70.2 53.82 70.59 51.27 82.29 51.27 81.91 53.82 77.47 53.82 75.6 66.12 72.81 66.12 74.68 53.82"/>
                <path class="cls-3" d="M90.36,50.94c3.89,0,6.82,2.73,6.82,6.84,0,4.64-3.63,8.69-8.41,8.69-3.89,0-6.79-2.79-6.79-6.89,0-4.66,3.61-8.63,8.39-8.63M84.81,59.4c0,2.73,1.77,4.48,4.14,4.48,3.05,0,5.4-2.77,5.4-5.86,0-2.71-1.77-4.5-4.17-4.5-3.05,0-5.38,2.79-5.38,5.88"/>
                <path class="cls-3" d="M100.9,51.27h3.43c3.63,0,5.78,1.97,5.78,4.84,0,3.35-2.65,5.54-6.95,5.54h-1.04l-.7,4.46h-2.79l2.27-14.85h0ZM103.51,59.12c2.53,0,3.75-1.35,3.75-2.87,0-1.3-.88-2.43-2.89-2.43h-1.06l-.82,5.3h1.02Z"/>
                <polygon class="cls-3" points="113.25 51.27 116.04 51.27 113.79 66.12 110.98 66.12 113.25 51.27"/>
                <path class="cls-3" d="M126.12,53.57c-3.13,0-5.74,2.35-5.74,5.64,0,2.79,1.89,4.66,4.42,4.66,1.42,0,2.69-.6,3.81-1.36l-.44,2.81c-1.04.62-2.41,1.14-4.06,1.14-3.81,0-6.56-2.71-6.56-6.9,0-4.92,3.75-8.63,8.51-8.63,1.85,0,3.17.6,4.03,1.18l-.42,2.71c-.98-.78-2.09-1.26-3.55-1.26"/>
                <path class="cls-3" d="M143.45,66.12h-2.83l-.76-3.89h-5.86l-2.05,3.89h-3.03l8.07-14.85h3.27l3.19,14.85ZM139.39,59.88l-1.12-5.68h-.02l-3.01,5.68h4.15Z"/>
                <polygon class="cls-3" points="147.68 51.27 150.47 51.27 148.59 63.55 154.83 63.55 154.43 66.12 145.4 66.12 147.68 51.27"/>
                <path class="cls-3" d="M173.34,66.12h-2.83l-.76-3.89h-5.86l-2.05,3.89h-3.03l8.07-14.85h3.27l3.19,14.85h0ZM169.28,59.88l-1.12-5.68h-.02l-3.01,5.68h4.15Z"/>
                <path class="cls-3" d="M177.56,51.27h3.63c4.56,0,7.35,2.89,7.35,6.75,0,4.33-3.23,8.09-9.29,8.09h-3.96l2.27-14.85h0ZM179.63,63.55c3.73,0,6.08-2.37,6.08-5.34,0-2.51-1.75-4.39-4.64-4.39h-1.12l-1.49,9.73h1.18,0Z"/>
                <polygon class="cls-3" points="190.05 66.12 192.32 51.27 195.11 51.27 194.18 57.37 200.83 57.37 201.75 51.27 204.54 51.27 202.29 66.12 199.5 66.12 200.43 59.94 193.78 59.94 192.84 66.12 190.05 66.12"/>
                <polygon class="cls-3" points="208.08 51.27 216.99 51.27 216.61 53.82 210.47 53.82 209.89 57.41 215.59 57.41 215.28 59.76 209.56 59.76 208.96 63.55 215.1 63.55 214.72 66.12 205.81 66.12 208.08 51.27"/>
                <path class="cls-3" d="M224.04,53.45c-1.49,0-2.41.74-2.41,1.71s.66,1.41,2.39,2.47c2.05,1.22,3.29,2.33,3.29,4.4,0,2.39-1.87,4.38-5.28,4.38-2.13,0-3.73-.8-4.74-1.69l.42-2.79c1.02,1.08,2.67,2.01,4.32,2.01,1.55,0,2.45-.8,2.45-1.83s-.74-1.61-2.47-2.67c-1.91-1.16-3.21-2.21-3.21-4.2,0-2.29,1.97-4.26,5.24-4.26,1.73,0,3.11.54,4.08,1.2l-.42,2.61c-1.06-.84-2.39-1.34-3.67-1.34"/>
                <polygon class="cls-3" points="231.67 51.27 234.46 51.27 232.21 66.12 229.4 66.12 231.67 51.27"/>
                <polygon class="cls-3" points="242.53 66.12 239.54 66.12 236.39 51.27 239.26 51.27 241.49 62.85 247.31 51.27 250.36 51.27 242.53 66.12"/>
                <polygon class="cls-3" points="252.19 51.27 261.1 51.27 260.72 53.82 254.58 53.82 254 57.41 259.7 57.41 259.38 59.76 253.66 59.76 253.07 63.55 259.2 63.55 258.83 66.12 249.92 66.12 252.19 51.27"/>
                <path class="cls-3" d="M268.15,53.45c-1.5,0-2.41.74-2.41,1.71s.66,1.41,2.39,2.47c2.05,1.22,3.29,2.33,3.29,4.4,0,2.39-1.87,4.38-5.28,4.38-2.13,0-3.73-.8-4.74-1.69l.42-2.79c1.02,1.08,2.67,2.01,4.32,2.01,1.55,0,2.45-.8,2.45-1.83s-.74-1.61-2.47-2.67c-1.91-1.16-3.21-2.21-3.21-4.2,0-2.29,1.97-4.26,5.24-4.26,1.73,0,3.11.54,4.08,1.2l-.42,2.61c-1.06-.84-2.39-1.34-3.67-1.34"/>
                <path class="cls-3" d="M326.17,12.94c0,1.64-1.28,2.92-2.95,2.92s-2.97-1.28-2.97-2.92,1.32-2.88,2.97-2.88,2.95,1.28,2.95,2.88M320.98,12.94c0,1.28.95,2.3,2.25,2.3s2.2-1.02,2.2-2.28-.93-2.32-2.22-2.32-2.23,1.04-2.23,2.3M322.76,14.45h-.67v-2.88c.26-.05.63-.09,1.11-.09.54,0,.79.09,1,.21.16.12.28.35.28.63,0,.32-.25.56-.6.67v.03c.28.11.44.32.53.7.09.44.14.62.21.72h-.72c-.09-.11-.14-.37-.23-.71-.05-.32-.23-.46-.6-.46h-.32v1.18ZM322.78,12.81h.32c.37,0,.67-.12.67-.42,0-.26-.19-.44-.62-.44-.18,0-.3.02-.37.04v.83h0Z"/>
              </g>
            </g>
          </g>
        </g>
      </g>
    </g>
  </g>
</svg>