<svg width="32" height="32" viewBox="0 0 32 32" fill="none" xmlns="http://www.w3.org/2000/svg">
<rect width="32" height="32" rx="4" fill="#F5F5F7"/>
<path d="M22.3568 12.6098V18.6113H25.8577V17.698H23.2701V13.5231H30.0544V23.2211H17.7252V8H30.0544V12.6098H22.3568ZM28.9671 9.957H19.5952V21.3294H28.4018V15.1757H24.3573V16.0455H27.532V20.4596H20.465V10.8268H28.9671V9.957Z" fill="#191B22"/>
<path d="M2.08105 9.30467L3.82061 8H16.6281V12.6098L14.8886 13.9362H12.5401V11.7618H11.6486V19.4593H14.2362V21.8947L12.4967 23.2211H4.90783V20.764L6.64739 19.4593H7.47368V11.7618H6.16902V12.6098L4.42946 13.9362H2.08105V9.30467ZM16.041 8.30442H4.03806L2.90734 9.13071H14.932L16.041 8.30442ZM15.1495 13.3057L16.3237 12.4141V8.54361L15.1495 9.43514V13.3057ZM4.69039 13.3057L5.8646 12.4141V11.7618H4.69039V13.3057ZM9.93082 20.5466L11.2572 19.5246V11.7618H9.93082V20.5466ZM7.47368 19.7638H6.8431L5.71238 20.5901H7.47368V19.7638ZM12.5184 20.5901L13.6491 19.7638H11.6486L10.5614 20.5901H12.5184ZM12.7576 22.5905L13.9318 21.699V20.003L12.7576 20.8945V22.5905Z" fill="#191B22"/>
</svg>
